<?xml version="1.0" encoding="UTF-8" standalone="no"?>
<!DOCTYPE svg PUBLIC "-//W3C//DTD SVG 1.1//EN" "http://www.w3.org/Graphics/SVG/1.1/DTD/svg11.dtd">
<svg width="100%" height="100%" viewBox="0 0 16 16" version="1.1" xmlns="http://www.w3.org/2000/svg" xmlns:xlink="http://www.w3.org/1999/xlink" xml:space="preserve" xmlns:serif="http://www.serif.com/" style="fill-rule:evenodd;clip-rule:evenodd;stroke-linejoin:round;stroke-miterlimit:2;">
    <rect x="11" y="12" width="3" height="1"/>
    <g transform="matrix(1,0,0,1.16667,0,-2)">
        <path d="M15,11.143L15,9L14,9L14,12L15,11.143Z"/>
    </g>
    <path d="M6.5,13L2,13L2,14L11,14L11,13L8,13L7,12L6.5,12L6.5,13Z"/>
    <rect x="1" y="12" width="1" height="1"/>
    <path d="M0,8.5L0,11L1,12L0,12L1,12L1,8.5L0,8.5Z"/>
    <rect x="1" y="6.5" width="1" height="2"/>
    <g transform="matrix(0.944444,0,0,1,0.277778,-0.5)">
        <path d="M14,4L12.941,4L11.882,5L14,5L14,4Z"/>
    </g>
    <rect x="2.5" y="4.5" width="2" height="1"/>
    <path d="M5,4.5L9,4.5L9,5.5L10.5,5.5L10.5,4.5L11.5,4.5L11.5,3.5L5,3.5L5,4.5Z"/>
    <g transform="matrix(1,0,0,1.6,0,-5.5)">
        <path d="M9,9.375L8,10L8,8.75L9,8.75L9,9.375Z"/>
    </g>
    <g transform="matrix(1,0,0,1.6,-4.5,-5.5)">
        <path d="M9,9.375L8,10L8,8.75L9,8.75L9,9.375Z"/>
    </g>
    <path d="M9,10L9,11" style="fill:none;"/>
    <path d="M0,2.5L4,2.5L5,3.5L1,3.5L1,6.5L0,5.5L0,2.5Z"/>
    <path d="M13.5,3.5L14.5,2.5L16,2.5L16,7.5L15,8.5L15,3.5L13.5,3.5Z"/>
    <path d="M13,7L14,6L11.5,6L11.5,7L13,7Z"/>
</svg>
